<?xml version="1.0" encoding="UTF-8" standalone="no"?>
<!-- Created with Inkscape (http://www.inkscape.org/) -->

<svg
   xmlns:dc="http://purl.org/dc/elements/1.1/"
   xmlns:cc="http://creativecommons.org/ns#"
   xmlns:rdf="http://www.w3.org/1999/02/22-rdf-syntax-ns#"
   xmlns:svg="http://www.w3.org/2000/svg"
   xmlns="http://www.w3.org/2000/svg"
   xmlns:sodipodi="http://sodipodi.sourceforge.net/DTD/sodipodi-0.dtd"
   xmlns:inkscape="http://www.inkscape.org/namespaces/inkscape"
   width="255mm"
   height="185mm"
   viewBox="0 0 255 185"
   version="1.1"
   id="svg887"
   inkscape:version="0.92.3 (2405546, 2018-03-11)"
   sodipodi:docname="Ethernet.svg">
  <defs
     id="defs881" />
  <sodipodi:namedview
     id="base"
     pagecolor="#ffffff"
     bordercolor="#666666"
     borderopacity="1.0"
     inkscape:pageopacity="0.0"
     inkscape:pageshadow="2"
     inkscape:zoom="0.35"
     inkscape:cx="-75.714286"
     inkscape:cy="560"
     inkscape:document-units="mm"
     inkscape:current-layer="layer1"
     showgrid="false"
     inkscape:window-width="1366"
     inkscape:window-height="683"
     inkscape:window-x="0"
     inkscape:window-y="28"
     inkscape:window-maximized="1" />
  <metadata
     id="metadata884">
    <rdf:RDF>
      <cc:Work
         rdf:about="">
        <dc:format>image/svg+xml</dc:format>
        <dc:type
           rdf:resource="http://purl.org/dc/dcmitype/StillImage" />
        <dc:title></dc:title>
      </cc:Work>
    </rdf:RDF>
  </metadata>
  <g
     inkscape:label="Layer 1"
     inkscape:groupmode="layer"
     id="layer1"
     transform="translate(0,-112)">
    <path
       style="fill:#000000;stroke-width:0.26458332"
       d="M 58.543948,294.99272 C 43.139738,293.38267 29.498708,286.67695 18.771088,275.44097 3.9948377,259.96452 -2.2089923,239.11796 1.6737777,217.98938 c 2.29645,-12.49645 8.5208903,-25.11155 18.1267803,-36.73765 2.29713,-2.78024 11.40745,-12.0137 12.88036,-13.05447 l 0.8599,-0.60761 v 8.07521 8.0752 l -2.18281,2.72489 c -7.92656,9.89502 -12.47054,20.67726 -13.67621,32.4518 -1.3896,13.57086 3.01269,28.25772 11.6323,38.80746 2.46789,3.02052 7.2014,7.36864 10.21683,9.38502 4.55208,3.04392 9.47849,5.14683 14.6908,6.27099 3.14013,0.67725 11.58927,0.67505 14.77326,-0.004 6.6647,-1.42105 13.6777,-4.80633 19.44687,-9.38731 1.01865,-0.80885 3.25373,-2.84506 4.96686,-4.52492 l 3.11477,-3.05428 -5.42841,-5.43303 -5.42841,-5.43303 2.37862,-3.57065 c 1.30824,-1.96385 2.46918,-3.60083 2.57987,-3.63773 0.11069,-0.0369 2.87775,2.61139 6.14902,5.88508 l 5.947752,5.95217 2.32061,-2.30986 2.32061,-2.30986 -6.48393,-6.48782 -6.483932,-6.48782 2.28177,-3.43779 c 1.25497,-1.89079 2.38856,-3.55346 2.51909,-3.69484 0.14731,-0.15956 2.920772,2.42503 7.312892,6.81488 l 7.07557,7.07193 2.37397,-2.38501 2.37396,-2.38502 -7.60086,-7.60487 -7.60086,-7.60486 2.41298,-3.62981 2.41298,-3.62983 8.18859,7.99545 c 4.50373,4.39749 8.27063,8.02587 8.37089,8.06305 0.10026,0.0372 1.19069,-0.94606 2.42318,-2.18499 l 2.2409,-2.25259 -8.7018,-8.7048 -8.7018,-8.7048 2.31888,-3.59616 c 1.27539,-1.97789 2.45047,-3.59616 2.6113,-3.59616 0.16083,0 4.4345,4.13586 9.49704,9.19079 l 9.20463,9.1908 2.31189,-2.3119 2.3119,-2.3119 -9.76296,-9.76564 -9.76297,-9.76564 2.01735,-3.13253 c 1.10955,-1.72288 4.99572,-7.59477 8.63594,-13.04864 l 6.61858,-9.91611 3.49952,-2.72699 3.49951,-2.72698 11.45345,11.45119 11.45346,11.45118 -8.92795,8.93085 -8.92796,8.93085 7.66962,7.67304 c 4.21829,4.22019 7.7888,7.67306 7.93446,7.67306 0.14566,0 4.2244,-3.95824 9.06386,-8.7961 l 8.79903,-8.79608 11.5092,11.50692 c 6.33006,6.32882 11.5092,11.57525 11.5092,11.65874 0,0.0835 -1.22039,1.71339 -2.71197,3.62201 l -2.71198,3.47022 -12.76805,8.48381 c -7.02243,4.6661 -12.8559,8.48381 -12.96326,8.48381 -0.10737,0 -4.57042,-4.374 -9.91788,-9.72 l -9.72267,-9.72001 -2.38542,2.37437 -2.38541,2.37436 9.26249,9.26525 c 5.09437,5.09588 9.26249,9.3428 9.26249,9.43759 0,0.21635 -6.96335,4.71969 -7.29789,4.71969 -0.13518,0 -4.11312,-3.8687 -8.83985,-8.59711 l -8.59405,-8.59711 -2.32047,2.30972 -2.32046,2.30972 8.23995,8.24307 8.23996,8.24307 -3.64357,2.43859 -3.64357,2.43859 -7.63519,-7.6318 -7.6352,-7.63179 -2.38504,2.37398 -2.38503,2.37398 7.16644,7.17 7.16644,7.17 -3.65883,2.4001 -3.65884,2.4001 -6.54849,-6.52181 -6.54848,-6.5218 -2.31303,2.31303 -2.31303,2.31304 6.05279,6.05708 6.05278,6.05709 -3.60043,2.40971 c -1.98023,1.32535 -3.6918,2.40972 -3.80349,2.40972 -0.11168,0 -2.59323,-2.38804 -5.51456,-5.30676 l -5.31149,-5.30676 -2.76066,2.7311 c -11.332922,11.21156 -23.458552,17.76301 -37.156492,20.07559 -3.06852,0.51805 -11.19007,0.8777 -13.75833,0.60927 z m 136.262622,-87.67732 -9.25537,-9.25819 2.23948,-2.25118 c 1.23172,-1.23815 2.34195,-2.25118 2.46719,-2.25118 0.12523,0 1.9138,1.01146 3.97459,2.24768 l 3.74689,2.24767 13.16145,-13.15917 13.16145,-13.15917 3.17791,3.16962 3.1779,3.16963 8.79753,-8.79459 c 4.83863,-4.83702 8.86707,-8.79458 8.95207,-8.79458 0.085,0 1.48116,1.33945 3.10256,2.97656 l 2.94802,2.97656 -25.06392,25.06927 c -13.78516,13.7881 -25.12433,25.06928 -25.19816,25.06928 -0.0738,0 -4.29914,-4.16619 -9.38959,-9.25821 z m -31.55585,-2.4516 -4.56046,-4.56606 10.71486,-10.7124 c 5.89317,-5.89183 10.71485,-10.82112 10.71485,-10.95399 0,-0.13286 -1.01993,-1.91096 -2.26651,-3.95132 l -2.26652,-3.70975 11.85656,-11.85875 c 6.52111,-6.52231 11.97667,-11.85876 12.12347,-11.85876 0.1468,0 5.08803,4.82223 10.98052,10.71606 l 10.7136,10.71605 -11.9489,11.94889 -11.94889,11.9489 -3.9123,-2.30384 -3.91231,-2.30384 -10.72982,10.72743 c -5.90141,5.90009 -10.7901,10.72743 -10.86376,10.72743 -0.0737,0 -2.18614,-2.05472 -4.69439,-4.56605 z M 44.222848,198.57018 c -1.42339,-0.70458 -2.95465,-2.23274 -3.56733,-3.56012 -0.46709,-1.01196 -0.48875,-2.60072 -0.49431,-36.26211 l -0.006,-35.20378 0.68203,-1.36865 c 0.7576,-1.52031 1.82697,-2.54252 3.41902,-3.26826 1.01095,-0.46085 3.07789,-0.48245 46.16979,-0.48245 50.981232,0 46.143132,-0.21499 48.311382,2.14677 2.05168,2.23478 1.98064,1.49448 1.89938,19.79533 l -0.0722,16.26518 -3.73211,2.91711 c -3.32558,2.59935 -3.8985,3.1693 -5.25957,5.23221 -0.8401,1.27331 -1.57167,2.31511 -1.6257,2.31511 -0.054,0 -0.0983,-1.64879 -0.0983,-3.66399 v -3.66397 l 1.05833,-0.47724 1.05834,-0.47725 v -6.12383 -6.12382 l -1.00334,-0.97974 -1.00335,-0.97974 h -8.22763 -8.22762 l -0.14747,-0.8599 c -0.0811,-0.47294 -0.22855,-2.43452 -0.32762,-4.35907 l -0.18014,-3.49918 -4.13359,-0.0727 -4.13359,-0.0727 -0.52917,-4.30547 -0.52917,-4.30547 -13.069692,8.4e-4 c -7.18833,4.8e-4 -13.10419,0.0354 -13.14635,0.0775 -0.0422,0.0422 -0.26399,1.56253 -0.49294,3.37858 -0.22894,1.81605 -0.48503,3.74839 -0.56908,4.29409 l -0.15283,0.99219 h -4.05024 -4.05025 l -0.15603,2.05052 c -0.0858,1.12779 -0.23135,3.09232 -0.32341,4.36562 l -0.16739,2.31511 h -8.24939 -8.24938 l -0.97974,1.00334 -0.97974,1.00334 v 6.10023 6.10022 l 1.05834,0.47724 1.05833,0.47724 v 6.03985 6.03986 l -1.05833,0.53992 -1.05834,0.53992 v 7.74614 7.74613 l 1.00335,0.97974 1.00334,0.97974 h 7.72791 7.7279 v -10.84788 -10.84792 h 2.11667 2.11667 v 10.84792 10.84792 h 2.24896 2.24895 v -10.84792 -10.84792 h 2.11667 2.11667 v 10.84792 10.84792 h 2.24896 2.24895 v -10.84792 -10.84792 l 2.18282,-9e-5 2.18281,-9e-5 -0.0719,10.84801 -0.0719,10.84801 h 2.25473 2.25473 v -10.84792 -10.84792 h 2.24896 2.24896 v 10.84792 10.84792 h 2.11666 2.116672 v -10.84792 -10.84792 h 2.24896 2.24896 v 10.84792 10.84792 h 2.11666 2.11667 v -10.84792 -10.84792 h 2.24896 2.24896 l 0.003,10.78177 0.003,10.78177 -2.97943,4.42302 -2.97944,4.42302 -31.617712,0.009 c -31.3147,0.008 -31.62817,0.003 -32.70963,-0.53196 z m 116.582082,-25.25641 -9.1257,-9.12858 25.13347,-25.13451 25.13347,-25.13452 3.04223,3.04223 3.04223,3.04223 -8.86066,8.86361 -8.86065,8.86362 3.10762,3.10762 3.10763,3.10762 -13.13821,13.14017 -13.1382,13.14017 2.30415,3.90698 2.30414,3.90698 -2.19104,2.20248 c -1.20508,1.21137 -2.31338,2.20248 -2.46291,2.20248 -0.14952,0 -4.37843,-4.10786 -9.39757,-9.12858 z m 67.40605,-2.17362 -1.51837,-1.53941 7.76559,-7.76224 7.76558,-7.76224 1.29342,1.37712 c 0.71137,0.75741 1.33328,1.48487 1.38202,1.61658 0.0487,0.13171 -3.34455,3.69775 -7.54063,7.92454 l -7.62923,7.68507 z m -6.29588,-6.57266 -1.44617,-1.4707 7.67293,-7.51242 c 4.2201,-4.13184 7.77107,-7.51815 7.89103,-7.52514 0.11995,-0.007 0.83433,0.57841 1.5875,1.30088 l 1.36939,1.31358 -7.67121,7.68225 c -4.21916,4.22523 -7.73557,7.68225 -7.81425,7.68225 -0.0787,0 -0.79381,-0.66182 -1.58922,-1.4707 z m -6.27358,-6.0017 -1.3837,-1.4011 7.74113,-7.7378 7.74115,-7.7378 1.42449,1.44241 1.42448,1.4424 -7.46948,7.62329 c -4.10822,4.19281 -7.61009,7.65624 -7.78193,7.6965 -0.17184,0.0403 -0.93511,-0.55729 -1.69614,-1.3279 z m -6.16183,-6.17393 -1.44617,-1.47551 7.8052,-7.63549 7.80522,-7.6355 1.45292,1.43867 1.45291,1.43866 -7.66892,7.67233 c -4.2179,4.21979 -7.73328,7.67234 -7.81195,7.67234 -0.0787,0 -0.79382,-0.66398 -1.58921,-1.4755 z m -6.14482,-6.13289 -1.51367,-1.52964 5.75199,-5.68584 c 3.1636,-3.12721 6.67557,-6.57565 7.80439,-7.66321 l 2.0524,-1.97737 1.45274,1.45273 1.45273,1.45273 -7.74345,7.74012 -7.74346,7.74011 z m -6.28577,-6.2865 -1.44134,-1.45947 7.73307,-7.73308 7.73308,-7.73308 1.52022,1.52022 1.52022,1.52021 -7.66892,7.67234 c -4.2179,4.21978 -7.73328,7.67233 -7.81195,7.67233 -0.0787,0 -0.79165,-0.65676 -1.58438,-1.45947 z"
       id="path1443"
       inkscape:connector-curvature="0" />
  </g>
</svg>
