<?xml version="1.0" encoding="UTF-8" standalone="no"?>
<svg
   xmlns:dc="http://purl.org/dc/elements/1.1/"
   xmlns:cc="http://creativecommons.org/ns#"
   xmlns:rdf="http://www.w3.org/1999/02/22-rdf-syntax-ns#"
   xmlns:xlink="http://www.w3.org/1999/xlink"
   xmlns="http://www.w3.org/2000/svg"
   width="400"
   height="30"
   version="1.0">
  <metadata>
    <rdf:RDF>
      <cc:Work
         rdf:about="">
        <dc:format>image/svg+xml</dc:format>
        <dc:type
           rdf:resource="http://purl.org/dc/dcmitype/StillImage" />
      </cc:Work>
    </rdf:RDF>
  </metadata>
  <defs>
    <path id="black" stroke-linecap="butt" stroke-width="10" d="M 0,0 c 18,0 18,-14 36,-14" />
    <g id="twist">
      <use xlink:href="#black" />
      <path stroke="green" stroke-width="8" d="M 0,0 c 18,0 18,-14 36,-14 s 18,14 36,14" />
      <use xlink:href="#black" transform="translate(36,0)" />
      <path stroke="white" stroke-width="8" d="M 36,0 c 18,0 18,-14 36,-14 s 18,14 36,14" />
    </g>
  </defs>
  <g stroke-linecap="round" fill="none" stroke="black">
    <path stroke-width="6" d="M 14,8 h 8 m 324,0 h 8 m -340,14 h 8 m 324,0 h 8" />
    <path stroke-width="4" stroke="orange" d="M 14,8 h 8 m 324,0 h 8 m -340,14 h 8 m 324,0 h 8" />
    <path stroke-width="10" d="M 22,22 l 0,0 m 0,-14 c 18,0 18,14 36,14 m 0,-14 c 18,0 18,14 36,14 m 0,-14 c 18,0 18,14 36,14 m 0,-14 c 18,0 18,14 36,14 m 0,-14 c 18,0 18,14 36,14 m 0,-14 c 18,0 18,14 36,14 m 0,-14 c 18,0 18,14 36,14 m 0,-14 c 18,0 18,14 36,14 m 0,-14 c 18,0 18,14 36,14 m 0,-14 l 0,0" />
    <path stroke="white" stroke-width="8" d="M 22,8 l 0,0 m 324,14 l 0,0" />
    <path stroke="green" stroke-width="8" d="M 22,22 l 0,0 m 324,-14 l 0,0" />
    <path stroke="white" stroke-width="8" d="M 22,8 c 18,0 18,14 36,14" />
    <use xlink:href="#twist" transform="translate(22,22)" />
    <use xlink:href="#twist" transform="translate(94,22)" />
    <use xlink:href="#twist" transform="translate(166,22)" />
    <use xlink:href="#twist" transform="translate(238,22)" />
    <use xlink:href="#black" transform="translate(310,22)" />
    <path stroke="green" stroke-width="8" d="M 310,22 c 18,0 18,-14 36,-14" />
  </g>
  <g style="font-size:10px;font-family:Sans">
    <text x="360" y="11.5">Data +</text>
    <text x="360" y="25.5">Data −</text>
  </g>
</svg>
